<?xml version="1.0" standalone="no"?>
<!DOCTYPE svg PUBLIC "-//W3C//DTD SVG 20010904//EN"
 "http://www.w3.org/TR/2001/REC-SVG-20010904/DTD/svg10.dtd">
<svg version="1.0" xmlns="http://www.w3.org/2000/svg"
 width="1280.000000pt" height="1280.000000pt" viewBox="0 0 1280.000000 1280.000000"
 preserveAspectRatio="xMidYMid meet">
<metadata>
Created by potrace 1.15, written by Peter Selinger 2001-2017
</metadata>
<g transform="translate(0.000000,1280.000000) scale(0.100000,-0.100000)"
fill="#ff0000" stroke="none">
<path d="M11497 10765 c-94 -18 -196 -60 -274 -113 -100 -68 -648 -551 -1013
-892 -234 -219 -750 -721 -833 -811 -41 -43 -77 -79 -80 -79 -4 0 -7 67 -7
148 0 121 -4 159 -19 205 -47 136 -160 236 -299 266 -39 8 -859 11 -3005 11
-2635 0 -2959 -2 -3012 -15 -147 -39 -265 -167 -295 -320 -8 -44 -10 -867 -8
-3125 l3 -3065 23 -58 c45 -112 133 -196 250 -241 l57 -21 2940 -3 c2006 -2
2962 1 3010 8 142 21 255 103 317 228 l33 67 5 1852 5 1852 225 247 c906 997
1693 1767 2543 2486 147 125 204 192 257 303 62 128 82 257 59 395 -68 423
-492 747 -882 675z m-2667 -1895 l0 -171 -53 56 c-47 52 -59 59 -137 82 -166
48 -380 39 -499 -22 -104 -53 -176 -146 -207 -265 -31 -124 2 -236 94 -321 61
-56 116 -85 272 -147 58 -23 122 -53 143 -65 l38 -23 -62 -70 c-153 -170 -135
-156 -173 -140 -18 8 -57 30 -85 49 -88 61 -200 72 -249 27 -21 -19 -23 -20
-47 -4 -19 12 -42 15 -98 12 -69 -3 -78 -6 -128 -44 -88 -68 -90 -68 -261 -72
l-158 -4 0 167 0 167 123 -3 c107 -4 127 -7 162 -28 55 -33 100 -41 159 -30
97 17 107 71 47 226 -43 109 -60 129 -124 143 -49 10 -55 9 -111 -20 -53 -27
-68 -30 -152 -30 l-94 0 0 142 0 141 115 -6 c128 -7 181 -24 243 -78 34 -30
38 -31 105 -26 83 5 120 28 125 76 6 57 -55 209 -100 251 -21 20 -32 20 -452
20 -338 -1 -435 -3 -448 -14 -25 -19 -38 -60 -38 -120 0 -65 27 -98 95 -115
l45 -11 0 -425 0 -425 -42 -11 c-24 -5 -51 -17 -62 -24 -40 -30 -38 -157 3
-199 21 -21 25 -21 481 -21 534 0 490 -10 555 120 28 56 41 73 43 58 5 -36 68
-99 122 -122 l51 -22 -28 -33 c-411 -487 -722 -871 -1007 -1240 -112 -146
-130 -165 -145 -154 -39 30 -214 178 -446 377 -563 482 -836 678 -1177 846
-229 113 -421 178 -645 218 -107 19 -123 25 -127 44 -5 16 -254 363 -358 497
-17 22 -16 23 59 77 142 101 190 193 180 340 -6 99 -38 170 -108 244 -29 30
-76 67 -106 81 -68 33 -179 42 -536 43 -282 1 -307 -4 -332 -63 -19 -44 -19
-87 -1 -130 14 -33 32 -43 109 -60 l27 -6 0 -430 0 -430 -27 -5 c-92 -20 -129
-68 -121 -157 9 -90 2 -88 313 -88 304 0 293 -3 313 73 14 51 -5 124 -38 149
-14 10 -49 21 -78 25 l-52 6 0 163 0 164 93 -103 c51 -56 150 -167 220 -247
l126 -144 -93 -21 c-123 -27 -226 -79 -309 -155 -156 -143 -237 -333 -237
-556 0 -184 54 -328 166 -440 112 -113 226 -153 491 -173 269 -21 492 -98 767
-263 250 -151 473 -332 921 -748 508 -472 727 -651 888 -725 217 -100 459 -73
677 75 83 57 133 109 400 420 134 157 402 467 595 689 192 222 358 413 367
425 17 20 18 -57 18 -1486 l0 -1508 -2860 0 -2860 0 0 2953 c0 1625 3 2957 7
2960 3 4 1290 7 2860 7 l2853 0 0 -170z m-4845 -275 c43 -17 64 -51 72 -112
12 -104 -36 -138 -211 -149 l-106 -7 0 148 0 148 106 -7 c59 -4 121 -13 139
-21z m4452 15 c15 -6 59 -32 97 -58 l69 -47 89 0 c86 0 91 1 114 28 l24 28 0
-91 0 -92 -66 -73 -66 -74 -57 28 c-31 16 -117 54 -191 85 -142 60 -210 110
-210 156 0 82 109 142 197 110z"/>
<path d="M4535 8855 c-22 -8 -41 -15 -42 -15 -10 0 -33 -65 -33 -90 0 -26 23
-99 32 -100 2 0 28 -9 58 -19 l55 -18 5 -394 c5 -384 6 -396 29 -452 30 -76
121 -173 200 -216 149 -79 408 -81 540 -5 75 45 167 144 204 221 l32 68 3 370
c1 204 4 380 7 391 4 16 15 23 47 28 24 4 53 14 66 22 18 12 26 12 45 2 12 -6
40 -14 62 -17 l40 -6 3 -434 c2 -462 4 -451 -45 -451 -13 0 -37 -13 -54 -28
-25 -23 -33 -38 -36 -78 -6 -56 13 -106 46 -124 26 -13 830 -14 865 0 66 25
149 237 119 303 -37 81 -184 82 -273 1 -55 -50 -100 -65 -216 -71 l-104 -6 0
440 0 440 59 7 c79 9 103 35 109 115 5 70 -13 104 -64 121 -22 8 -112 10 -264
8 -220 -3 -230 -4 -251 -25 l-22 -22 -18 22 c-16 21 -26 22 -221 25 -128 2
-217 -1 -240 -8 -49 -14 -80 -58 -80 -116 -2 -71 27 -101 115 -119 l28 -6 -3
-362 c-3 -333 -5 -365 -22 -401 -38 -76 -141 -110 -251 -83 -37 9 -80 26 -97
38 -56 40 -58 55 -58 436 0 191 4 353 8 359 4 6 26 15 49 19 62 10 93 45 93
107 0 64 -22 116 -55 128 -43 16 -422 12 -470 -5z"/>
</g>
</svg>
